<?xml version="1.0" encoding="UTF-8"?>
<svg version="1.1" viewBox="0 0 1600 713" width="3880" height="1730" xmlns="http://www.w3.org/2000/svg">
<path transform="translate(333,33)" d="m0 0h24l30 2 27 4 26 6 33 11 24 11 18 10 18 12 16 12 11 10 8 7 15 15 7 8 13 16 16 24 9 16 8 16 8 19 8 24 7 30 4 28 1 12 1 32-1 25-3 27-5 26-7 25-9 24-14 29-13 21-14 19-6 7 1 8 23 87 5 19v4l-5-2-28-16-48-28-15-9-4 1-23 13-21 10-24 9-25 7-26 5-25 3-16 1h-34l-27-2-32-5-28-7-24-8-20-9-25-13-15-10-16-12-13-11-12-11-12-12-9-11-11-13-18-27-12-22-10-23-10-30-6-26-4-29-1-11v-53l3-28 4-23 7-27 10-28 14-29 14-23 12-16 9-11 9-10 7-8 11-11 8-7 16-13 24-16 18-10 21-10 25-9 25-7 27-5 26-3zm-1 73-25 3-23 5-21 7-20 9-16 9-16 11-13 11-12 11-11 12-14 19-9 15-9 17-10 25-7 25-4 21-3 31v32l2 24 4 24 6 23 8 22 12 25 12 19 9 12 12 14 12 12 11 9 15 11 19 11 19 9 24 8 22 5 24 3h40l25-3 22-5 24-8 23-11 16-10 17-13 13-12 8-8 9-11 10-14 10-17 10-21 9-27 2-9h-123l-8 15-9 12-7 8-13 10-17 9-16 5-11 2h-31l-19-4-15-6-12-7-10-8-7-6-9-11-9-14-8-17-6-20-3-16-1-9v-41l3-21 6-21 5-12 8-15 9-12 10-11 13-10 17-9 16-5 11-2 12-1h10l17 2 15 4 16 7 13 9 11 10 10 13 9 16 1 1h116l6-1-6-21-8-21-10-20-11-17-10-13-11-12-13-13-14-11-15-10-18-10-25-10-23-6-24-4-12-1z" fill="#F6F5D3"/>
<path transform="translate(843,241)" d="m0 0h14l20 2 17 4 16 6 17 9 13 10 15 15 5 7 1-47 18-1h69l24 1v361h-111l-1-47-12 14-11 10-13 9-17 9-18 6-14 3-8 1h-35l-22-4-18-6-16-8-16-10-14-12-10-10-13-17-11-19-8-18-6-18-5-23-2-16-1-21v-11l2-27 4-22 6-21 8-19 9-17 10-14 11-13 8-8 14-11 13-8 19-9 15-5 21-4zm34 97-14 2-14 5-12 7-12 11-8 10-8 16-4 15-1 7v31l3 16 6 16 7 11 9 10 9 8 14 8 12 4 6 1h25l15-4 14-7 10-8 9-9 7-11 5-10 5-19 1-8v-26l-4-20-6-15-8-12-7-8-10-8-11-6-10-4-8-2-9-1z" fill="#F7C3CD"/>
<path transform="translate(1246,241)" d="m0 0h17l24 2 24 5 17 6 16 8 12 8 14 12 9 10 10 15 8 16 6 18 3 14 1 9-1 1h-102l-4-13-6-10-7-7-8-5-13-4-6-1h-18l-13 3-9 5-5 6-3 9v7l3 9 4 5 10 6 20 7 22 6 28 7 32 10 20 8 11 6 11 8 12 11 9 11 6 10 5 14 3 14 1 11v12l-3 19-6 16-6 11-9 12-11 11-14 10-21 11-21 7-25 5-10 1h-43l-27-4-21-6-16-6-19-10-14-10-10-9-11-11-11-16-8-16-6-20-1-6v-10h109l5 15 6 9 9 8 12 6 12 3h24l12-3 10-6 5-6 3-8v-9l-3-8-4-5-9-5-18-7-32-9-32-8-36-12-16-8-14-10-15-15-7-11-5-11-4-16-1-9v-20l3-17 5-14 8-15 10-13 9-9 15-11 17-9 19-7 22-5 15-2z" fill="#BCA8F1"/>
<path transform="translate(333,33)" d="m0 0h24l30 2 27 4 26 6 16 5 1 12-1 1-10 1-4 1-1 3-8 3-14 3-10 3-2 1h-10l-8 2v3l-4-1v2h-9l-12 2-8 4-1 2h-9l-5-1-10 4-7 2-4 5-6-1-4-1v3l-6 1-6 7-24 7-25 10-19 10-19 13-13 11-12 11-10 11-14 19-9 15-9 17-10 25-7 25-4 21-3 31v32l2 24 4 24 6 23 8 22 12 25 12 19 9 12 12 14 11 11 11 9 15 11 19 11 19 9 23 8-5 7-2 7-4 4 4 1 3 1-1 3-2 1-1 6 3 1v2l-7 4-1 3-9 4-5 1 4 4v5l-8 3-5 3-1 4-2 3-10-1-24-9-25-12-16-9-12-8-16-12-13-11-12-11-12-12-9-11-11-13-18-27-12-22-10-23-10-30-6-26-4-29-1-11v-53l3-28 4-23 7-27 10-28 14-29 14-23 12-16 9-11 9-10 7-8 11-11 8-7 16-13 24-16 18-10 21-10 25-9 25-7 27-5 26-3z" fill="#C7F8F4"/>
<path transform="translate(344,213)" d="m0 0h10l17 2 15 4 16 7 13 9 12 11 10 13 9 16 55 1 2 14-3 5-1 1 8 2-1 2-5 1 9 1v3l-9 1v4l5 1-2 1-8 1-6 5-5 2-9 7-3 1-1 4 5 3 5 4 2 2-4 5-3 6h-2v2h-2v2l4 2-1 7-4 2-1 10h11v3l-6 4v3l5 3 2 5h11l7 3 1 7 1 4-1 1-9-1v3l4 2 4 7v3h3v2h-2v3l6 1v1h-63l-2 6-9 15-13 15-13 10-17 9-16 5-11 2h-31l-19-4-15-6-12-7-10-8-8-7-9-11-9-14-8-17-6-20-3-16-1-9v-41l3-21 6-21 5-12 8-15 9-12 11-12 13-10 17-9 16-5 11-2z" fill="#EDF9DD"/>
<path transform="translate(1436,251)" d="m0 0h111v362h-111z" fill="#9EA7FA"/>
<path transform="translate(1246,241)" d="m0 0h17l24 2 24 5 17 6 16 8 12 8 14 12 9 10 10 15 8 16 6 18 3 14 1 9-1 1h-102l-4-13-6-10-7-7-8-5-13-4-6-1h-18l-13 3-9 5-5 6-3 9v7l3 9 4 5 10 6 20 7 22 6 1 2h-4l1 7-6 8-4 10v5l-5 6 1 4-2 4 3 3-2 4-1 5-1 1 3 2v16l-1 3-17-4-32-8-36-12-16-8-14-10-15-15-7-11-5-11-4-16-1-9v-20l3-17 5-14 8-15 10-13 9-9 15-11 17-9 19-7 22-5 15-2z" fill="#D0B5EB"/>
<path transform="translate(333,33)" d="m0 0h24l30 2 27 4 26 6 16 5 1 12-1 1-10 1-4 1-1 3-8 3-14 3-10 3-2 1h-10l-8 2v3l-4-1v2h-9l-12 2-8 4-1 2h-9l-5-1-10 4-7 2-4 5-6-1-4-1v3l-6 1-6 7-24 7-25 10-19 10-19 13-13 11-12 11-10 11-14 19-9 15-9 17-10 25-7 25-4 21-1 8-7-2-1 2-1-4h2l-2-11-7-5-1-5-5-3-4-5-1-5 3-1 2-5h-11l-1-5 4-3 4-2 1-2-6-1-1-2v-17l-2-6-5-2 2 7 1 5-7-1-3-3-1-3v-15l-6-2-3-9v-20l-2-1 13-21 10-13 9-11 9-10 7-8 11-11 8-7 16-13 24-16 18-10 21-10 25-9 25-7 27-5 26-3z" fill="#DFF9E8"/>
<path transform="translate(843,241)" d="m0 0h14l20 2 17 4 16 6 17 9 13 10 12 12h-3l-6 2-12 6-5 2-5 4-4 5-12 5-10 6-6 3-2 5h-7l-5 4v4l-6 4-1 6-12 3-16 8-10 8-7 7-9 14-5 12-2 8h-2l-1-7-3-1-15 4-8 5-7 4-5 3-12 4 2 4h-10l-6 3-1 5-7 1-9 2-6 5h-9v3l-8 2-2 6v7l-4 1v10l-2-1-2-25v-15l2-27 4-22 6-21 8-19 9-17 10-14 11-13 8-8 14-11 13-8 19-9 15-5 21-4z" fill="#F9E2CC"/>
<path transform="translate(260,260)" d="m0 0 5 2 3 7 10 1 2 2v4h-2l2 7-8-1-1 2h6l6 3 2 3 6 2 6 8 4 4 4 2 5 1 2 13 5 5 3 7 6 4 4 6v2h4l1 4 9 2 1 7h2l2 5 1 7 5 5 11 2v4l2 1v8l1 2-2 1 8 3 2 2v3l6 2 4 2 5 2 6 2v2l5-1 4 4 2 6 4-1 6 2 7 4v7l6 4-1 7-6 2v4l4 1 2 4-2 5-8 9-13 10-17 9-16 5-11 2h-31l-19-4-15-6-12-7-10-8-8-7-9-11-9-14-8-17-6-20-3-16-1-9v-41l3-21 6-21 5-12 8-15 3-3z" fill="#DFF9E8"/>
<path transform="translate(515,532)" d="m0 0 2 1 2 4v5l5 3 2 9 5 3v-2h2l1-4v15l3 1-1 1 7 3 6 4v1l-8 2 11 8-1 4-4 4-7 1-2 6-5 1 9 4-1 2 8 4v2h-3l2 10 10 1 2 2-2 2 4 4-1 3h-2l-1 4 2 2-5-1-28-16-4-1-15 9-23 12-28 11-24 7-24 5-31 4-16 1h-34l-27-2-32-5-28-7 3-1 2-4v-4l5-2 5-3h4l-1-5-4-4 15-5 1-4 5-3h2v-2l-4-1 2-7 2-3h-6l-1-2 5-5 2-7 5-6 29 6 18 2h40l25-3 22-5 24-8 23-11 16-10 17-13 13-12z" fill="#EDE3E1"/>
<path transform="translate(1068,318)" d="m0 0 4 1v289h-111l-1-47-5 5-2-1 1-10 1-3h2v-2l3-2 2-6 1 3h2l1-8 3-5h-2l-1-2v-12l1-3 7-1 3 1 3 3 1-11-5-1 2-6 7-2 6 1 1-4v-3l7-6h3l-2-7 1-5 4-1v-6l4-7 2-9-1-3 6-7 4-3v-8h2v-6l-2-7 2-5 2-1 1-6 6-5-1-11 3-5 5-3-1-7-1-3 3-1 1-7 5-3v-2l-2-2 4-2v-2l7-5 3-6 1-5 1-6 6-5-1-4h2v-2z" fill="#EDB8D6"/>
<path transform="translate(577,387)" d="m0 0 4 5 9 6-7 3-1 6 6-2 3-2h3l1 3h-4l-1 5h-8v2h10l7 2-1 10 6 2 1-2 1 9-3 4 1 3 2-1 6 3 4 4v3l-7 3v7l3 1v2h2l3 6 3 1 3-1h11l1 1v5l5-3-1 6v3l-4-2-2 4h-2l1 4h6l-3 9-12 23-12 19-13 17-5 6 1 8 23 87 5 19v4l-5-2-28-16-24-14-7-4-1-4 2-3h2l-1-6-3-1 2-2-1-1-10-2-2-10h3v-2l-9-3 1-2-8-4-1-2 6-1 1-5 7-2 3-1 2-3-1-4-9-6-1-2 6-2-4-4-7-2 1-2-2-1-1-11h-2v2l-5-2-2-5v-5l-5-2-1-3-1-4-1-5 11-13 14-21 12-23 9-24 5-18-33-1 2-2-2-10 1-9 5-8 2-2 5 1 1 1h7l14-7h3l1-4h2v-2h2z" fill="#F1E0D9"/>
<path transform="translate(979,246)" d="m0 0h69l24 1v72h-6l-1 3 1 3-6 5-1 6-1 5-5 8-4 3h-2l1 3-3 2v4l-5 2v8l-3 1 2 5-5 3h-2v2l-4 4h-2l-1 3-2-1 2-7-1-1-5 6-7 6-3-1-1-6-4-1-2-3 1-5 4-1-1-3-5-2-5 2-2-4v-5l10-5-1-4 3-1 1-3-1-3h2l-1-3 3-3-2-5-3 1-1-4 8-6 4-5 2-10 2-7-3-1-1-2h-3l-1-2h-3l1-3-6 1-5 5 2 3v5l-3 3h-4l1 4-2 1v5l-4 3-4 2-7 3-5 2-2 4-14 4 1 2 3 2h-3v2l-7 5 2 2-7 1-9 1 2 4-5-2-8-7-11-6-10-4-8-2-9-1h-20v-5l5-4h2l-1-5 6-4h7l2-5 15-8 14-7 4-5 5-4 11-4 9-5 6 2 7 9 1-47z" fill="#F8DECC"/>
<path transform="translate(801,391)" d="m0 0 4 2 1 7-1 11v31l3 16 6 16 7 11 8 9h-3l-6-5-9 3-9 5-4 6-5 4-6 7-5 10-4 2-1 2v10l-10 4-4 3-11 2-2 7-7 5v8l4 4-1 2-10-10-13-17-11-19-8-18-6-18-5-23 1-17 3-2v-7l3-5 5-2h3v-3l2-1h7l6-5 11-3 5 1-1-3 2-3 6-3 10 1-3-4 9-4 7-3 6-3 10-6 8-3z" fill="#F8D8CD"/>
<path transform="translate(843,241)" d="m0 0h14l20 2 17 4 16 6 17 9 9 7-3 2-3-1-3 1-4-1-2-1-8 3-3 3-13 4-4 10-1 1-8 1-2 3-27 6-5 3-13 2-2 6-3 2-14 1-1 6-9 3-10 1-6 8-9 4h-8l-10 1-9 7-6 3-9 3-3 5-6 4-1 1h-9l-5 5-3 4-12 3-3 1v2h-2l-1 4v-8l6-21 8-19 9-17 10-14 11-13 8-8 14-11 13-8 19-9 15-5 21-4z" fill="#FAE8CB"/>
<path transform="translate(1487,93)" d="m0 0h11l16 3 12 5 9 7 5 4 9 12 5 12 3 14v16l-3 14-8 16-2 2 1 10 3 11-1 4-17-10-6 2-12 5-12 2h-15l-15-3-16-8-12-11-8-12-5-15-1-5v-20l4-16 7-13 10-11 14-9 11-4zm-27 55-5 3-3 5 1 7 5 5h8l6-5v-9l-5-5zm31 0-5 3-3 4v6l4 6 2 1h8l5-4 1-2v-8l-5-5zm30 0-5 3-2 4v7l4 5 2 1h8l5-4 1-9-5-6-2-1z" fill="#BFB7F9"/>
<path transform="translate(1096,489)" d="m0 0h109l5 15 6 9 9 8 12 6 7 2v2h-4l-1 4-1 30 1 5v6l-4 1 3 9-1 6-1 2 1 3-1 5 9 3 1 6h2v2l-17-1-22-4-17-5-16-6-19-10-14-10-10-9-11-11-11-16-8-16-6-20-1-6z" fill="#D9B2E0"/>
<path transform="translate(1246,241)" d="m0 0h17v2l-4 1-1 4v3h-3v4l-4 1v2l-2 2v3l-5 4-4 9-2 5-5 8-5 10-4 10-3 3-1 6-4 2 3 3-3 5-5 3-2 6-1 1h-9l-6 8-4 4-4 5-6-1-4 7-3 2h-3l-11 4-3 3-2-1 2-4-5 5-9 6-2 5-2 2-3 7-3 4 2 1 4 8 1 10-3 6 4 5-4-2-11-11-7-11-5-11-4-16-1-9v-20l3-17 5-14 8-15 10-13 9-9 15-11 17-9 19-7 22-5 15-2z" fill="#DAC0E5"/>
<path transform="translate(26,319)" d="m0 0 10 5 6 8 2 4 2 10 2 4 3-2 3 7v5l3 1 1 3 3 1 2 10 2 3 1 10 3 4h5l3 5-6 1 4 8 1-8 4 2 1 4-3 6v6l8 6 4 10 1 1 1 7 2 4-1 6 4 2 1 1 1 8 3 5 2 7 1 10 4 1 4 10 4 11 1 2v7 4l-1 3 1 3v8h2l2 8 1 2-2 1 2 14 5 3v5l-2 4 1 1v5l-3 3-1 7 5 2 1 5-3 2-8-7-14-14-9-11-11-13-18-27-12-22-10-23-10-30-6-26-4-29-1-11v-53l1-7z" fill="#C1F0F7"/>
<path transform="translate(639,296)" d="m0 0 8 2 7 3 5-1 2-2 3 28 1 32-1 25-3 27-5 26-7 25-9 24-1 2-7 1-2-3 1-2h2l1-4h3 2l-1-4h2l-1-2-4 2-1-5h-11l-4 1-4-3-1-5h-2l-3-3-1 2v-10l8-2-1-3-6-5-4-1h-3l1-5 2-3-1-6-4-1-2-1v-9l-6-1v-2h-10v-2h8l1-5 3-1v-2l-6 3-1 1h-5l-1-4 4-4 3-1-10-8h-4-8l-1 5h-3l-1-6v-8l2-5 6-3 12-2-3-4-4-2 3-1 5 2 2-1-10-3-1-5h-2l-1-2-4 2v-3l12-3 2-2 2-5h5l1-6 2-3 6-1-1-8 1-3 7-1 11-7h8l6-2 2-2v-5l-4-3 1-3z" fill="#F6E9D2"/>
<path transform="translate(456,51)" d="m0 0 9 2 24 10 21 11 19 12 12 9 10 8 14 12v3l-3 1 1 2-3 2h-4l1 5-1 1h-8l-7 4-1 6h-5v-3l1-1-6-2v2h2l1 3-3 2-11 2v5l-7 1-1-1-2 5v6l4 1-1 3-5-2-1 3-4-1-14-12-18-12-18-10-25-10-23-6-24-4-12-1h-36l-25 3-9 1 1-3 5-5 4-1 2 1v-3l10 1 4-5 11-3 7-3 13 2 2-4 10-4 13-1 5 1v-2l4 1v-3l9-3h9l9-3 10-3 9-2 6-2 3-3 2-1 10-1-1-10z" fill="#EDF9DC"/>
<path transform="translate(283,591)" d="m0 0 29 6 18 2h55l2 6 3-1 3 5-1 3h-2l1 2 6 1 2 1-2 11 1 1 1-8 2-4h2l1 6 1 9-1 2 4 1v4l-4 4v2l6 3 4 4-4 1 6 2-2 3-7-1 3 6 4 3v2l-26 4-26 2h-34l-27-2-32-5-28-7 3-1 2-4v-4l5-2 5-3h4l-1-5-4-4 15-5 1-4 5-3h2v-2l-4-1 2-7 2-3h-6l-1-2 5-5 2-7z" fill="#DEEEF2"/>
<path transform="translate(1324,256)" d="m0 0 11 1 14 8 12 9 12 11 11 14 9 15 7 17 5 19 2 14-1 1h-102l-4-13-6-10-6-7 1-1v-5l1-1v-7l7-13 3-3h2l1-6 3-2-2-5 1-4 12-6h2l-1-8h-3v-3l5-1 1-6 2 3v5l5-1 1-7-4 1-1-2z" fill="#C1B0F4"/>
<path transform="translate(1375,432)" d="m0 0 5 1 8 8 9 13 5 10 4 13 2 10 1 11v12l-3 19-6 16-6 11-9 12-11 11-14 10-21 11-7 1v-2h4l-1-4 2-3-1-7 5-3 2-4v-2l-4-2-2-6-5-2-1-3 2-2 5-2-1-8v-9l5-3 1-2 1-10 4-7 6-2 1-7-5-6v-3l-4 3-2-1 1-7-2-4v-8l2-1 6 2 1 2 3-9 3-10 5-5v-10l3-4 5-2 2-15z" fill="#B0A7F0"/>
<path transform="translate(979,246)" d="m0 0h69l24 1v72h-6l-1 3 1 3-6 5-1 6-1 5-5 8-4 3h-2l1 3-3 2v4l-5 2v8l-3 1 2 5-5 3h-2v2l-4 4h-2l-1 3-2-1 2-7-1-1-5 6-7 6-3-1-1-6-4-1-2-3 1-5 4-1-1-3-5-2-5 2-2-4v-5l10-5-1-4 3-1 1-3-1-3h2l-1-3 3-3-2-5-3 1-1-4 8-6 4-5 2-10 2-7-3-1-1-2h-3l-1-2h-3l2-5v-4l-3-2 1-4h-2v-2l-5 3v-6l2-1 4 2 4-4-2-1 2-7-2-4h3v-7l3-4 1-4 1-1-2-1-37-1z" fill="#F1D1D4"/>
<path transform="translate(1020,430)" d="m0 0h3l2 9 6 1-1 7-3 1-3-2 2-5-4 3-5 1v2h4l1 4 4-1 1 11v3h2l-2 5-3 12-1 5 1 11-1 6-3 1-1 8 4 1 1 3v7l-2-1-1-7-5 3 1 14-3 4h-2v8l-1 2 3 1 1 6-3 4h-2l2 6v9l-6 7h-2l2 10 2 2v3l-4 1-1 2 6 2v5h-2v2h6v1l-21 1h-31l-1-47-5 5-2-1 1-10 1-3h2v-2l3-2 2-6 1 3h2l1-8 3-5h-2l-1-2v-12l1-3 7-1 3 1 3 3 1-11-5-1 2-6 7-2 6 1 1-4v-3l7-6h3l-2-7 1-5 4-1v-6l4-7 2-9-1-3 6-7 4-3z" fill="#F3BCD2"/>
<path transform="translate(797,447)" d="m0 0 4 2 3 1 1 6h2l8 20 9 13 5 6-4-2-5-4-9 3-9 5-4 6-5 4-6 7-5 10-4 2-1 2v10l-10 4-4 3-11 2-2 7-7 5v8l4 4-1 2-10-10-13-17-11-19-8-18-3-10 3 1 2-4 9-1 5-5 3-1 7 1 5-7 10-3 4-1 1 2 4-2 8-9 10-3 5-4 9-6 2-3 6-3z" fill="#F7D0CE"/>
<path transform="translate(201,549)" d="m0 0 5 2 13 10 20 12 21 10 23 8-5 7-2 7-4 4 4 1 3 1-1 3-2 1-1 6 3 1v2l-7 4-1 3-9 4-5 1 4 4v5l-8 3-5 3-1 4-2 3-10-1-24-9-25-12-7-4v-2h2l2-4 3-3h2v-2l6-4-2-4 1-4 5-6-1-7 10-6h-2l-14-2-1-11 3-3 8-5h3l-3-4 1-3 2-1-1-3-7-2z" fill="#D5F4F4"/>
<path transform="translate(64,189)" d="m0 0h2l1 4v18l2 6 6 3 1 3v13l1 4 9 2-2-5-1-1v-6l5 1 3 7v19l6 1-2 4-6 3v5l11-1v4l-2 3h-3l4 8 3 3 4 2 1 5 6 4 2 6v6 2h4l2-3v14l-1 14-1 27-2 1-1-13-2-2-5-2-2-3-4-1v2l-5 1-3-1-1-7 6-8-4-6-1-8h-9l-4 1-5-2v-2h3v-4l-6 1-7-1-1-2v-8l-3-1-3-5-2-3-1-7-8-5-6-11v-2l-10 1 2-10 10-30 11-24 7-13z" fill="#D4F7F2"/>
<path transform="translate(1199,337)" d="m0 0 8 1 1 4v7 4 3l-1 4-2 5 2 4-2 6v11l2 1h-3l-2 5 1 4h2v3l-4 2 2 3-1 6-2 5-4 2v12l5 3-1 5-1 6 1 5v6l-11-3-20-7-16-8-14-10-3-5-2-3 3-5-1-11-6-9 5-6v-4l4-2 1-5 10-7h2l2-4 2-1-1 4 3-2 11-4h3l5-5 2-5 2 2 5-1 4-6 5-4z" fill="#D9B2E0"/>
<path transform="translate(1197,490)" d="m0 0h8l3 9 6 12 8 8 10 6 12 4v2h-4l-1 4-1 30 1 5v6l-4 1 3 9-1 6-1 2 1 3-1 5 9 3 1 6h2v2l-17-1-22-4-17-5-13-5-4-4 1-3h2l1-7 3-4v-7h2l1-11-2-2-4-2 4-1 2-8-1-13 2-5v-13l1-8 1-15 2-4z" fill="#CFADE7"/>
<path transform="translate(43,334)" d="m0 0 1 2 2 10 2 4 3-2 3 7v5l3 1 1 3 3 1 2 10 2 3 1 10 3 4h5l3 5-6 1 4 8 1-8 4 2 1 4-3 6v6l8 6 4 10 1 1 1 7 2 4-1 6 4 2 1 1 1 8 3 5 2 7 1 10 4 1 4 10 4 11 1 2v7 4l-1 3 1 3v8h2l2 8 1 2-2 1 2 14 5 3v5l-2 4 1 1v5l-3 3-1 7 5 2 1 5-3 2-8-7-3-3v-2h3l-3-9-4-4 1-11-5-11-3-4-3-8-4-10-1-7-8-6-5-2-4-9-3-10-4-7 1-8 4-4 3-1-1-5-3-2v-2h-2l-1-5-1-7h-2l4 16h2v6l-5 4h-5l-3-4 5-7 1-3-4-2-2-2-1-10-1-3 5 1-2-13v-6l-7-1-2-2-1-9h3l-2-13-2-2-2-11-1-12-4-12 1-6 1-3-3-7-5-5-1-5z" fill="#C1F4F6"/>
<path transform="translate(453,346)" d="m0 0h8v3l5 1 1 5 7 2 2 2v6l-4 2-1 10h11v3l-6 4v3l5 3 2 5h11l7 3 1 7 1 4-1 1-9-1v3l4 2 4 7v3h3v2h-2v3l6 1v1h-63l-2 6-9 15-4 4v-5l-5-3-1-4 4-2h2l1-7-6-4v-7l-7-4-4-4 3-10 4-4-4-1-2-2 7-3h7l2-1-6-2-3-8v-3l7-3 4-4 3-5 1-6h-5l-3-3-4-1v2h-8v-4h2l-1-3 1-2 5-1 1 4 10 3 8 3 6-12z" fill="#E9F2DC"/>
<path transform="translate(1068,318)" d="m0 0 4 1v124l-4 4-2 5-3 2v2l2 2-4 1-1-1v-8h-3l-1 4-5-2-4 3-4 1-2-1-2 4-3-2-7 7h-2l-2-13h-3l-1-4-5 1 1-3 6-3 3-1-1 5 4 1 2-7-6-1-3-9v-6l-2-7 2-5 2-1 1-6 6-5-1-11 3-5 5-3-1-7-1-3 3-1 1-7 5-3v-2l-2-2 4-2v-2l7-5 3-6 1-5 1-6 6-5-1-4h2v-2z" fill="#EBBFD7"/>
<path transform="translate(370,599)" d="m0 0h15l2 6 3-1 3 5-1 3h-2l1 2 6 1 2 1-2 11 1 1 1-8 2-4h2l1 6 1 9-1 2 4 1v4l-4 4v2l6 3 4 4-4 1 6 2-2 3-7-1 3 6 4 3v2l-26 4-26 2h-34l-16-1-3-1v-5l4-4 5-2h8l1-4 6-2-3-3-6-2 3-2 6-3h2l-1-5 2-2 6-2 1-3 3-1-1-1v-9l3-3 9-3 5-3 5-9-5-1h-18v-1z" fill="#E7E9F0"/>
<path transform="translate(1231,378)" d="m0 0 9 1 23 7 9 3-4 1 1 7-6 8-4 10v5l-5 6 1 4-2 4 3 3-2 4-1 5-1 1 3 2v16l-1 3-17-4-32-8-6-3v-8l-1-5 2-5v-3l-5-3v-12l2-2h3l1-5 1-6-2-4 7-1v-5l6-5 1-7 4-1 2 3-1 5-2 6 7-1v-6l3-3 3-6z" fill="#CFADE7"/>
<path transform="translate(1549,142)" d="m0 0 5 2 2 2 1 4v16l-3 14-8 16-2 2 1 10 3 11-1 4-17-10-6 2-12 5-12 2h-15l-15-3-10-5v-5l-3-1 3-3 4-2 2-2 2-7 8-4 1-7 4-3 5 1v-5l4-1 14-8 1-4 7-2 8 6h8l4-3 3-13 2-3 7-3z" fill="#B3B0F9"/>
<path transform="translate(577,387)" d="m0 0 4 5 9 6-7 3-1 6 6-2 3-2h3l1 3h-4l-1 5h-8v2h10l7 2-1 10 6 2 1-2 1 9-3 4 1 3 2-1 6 3 4 4v3l-7 3v10l-4-1 1 7-3 3-8 1v2l-5 3-3-2-7 3h-3l-1 2-2-4-4-2v6l-6 5-1 5-7-2-2 5-4 4-5 3-1 5-4-2-2 1 1-5 9-16 8-17 9-27 2-8-33-1 2-2-2-10 1-9 5-8 2-2 5 1 1 1h7l14-7h3l1-4h2v-2h2z" fill="#F0E8D7"/>
<path transform="translate(837,346)" d="m0 0 3 1v2l2 1-11 8-8 8-9 14-5 12-2 8h-2l-1-7-3-1-15 4-8 5-7 4-5 3-12 4 2 4h-10l-6 3-1 5-7 1-9 2-6 5h-9v3l-8 2-2 6v7l-4 1v10l-2-1-2-25v-15l1-18h1l1 9 6-3 12-1 5-3v-5l4-3 10-3h3l3-9 9-1 13-5 8-4 9-4 9-3 3-5 2-1 9-1 9-6 8-2 1 1h10l7-3z" fill="#F9DECC"/>
<path transform="translate(639,296)" d="m0 0 8 2 7 3 5-1 2-2 3 28 1 32-1 7h-6l-1 3-5 2-3-8-2-4 7-4v-2l-12 5-3 5-2-1-1-1-14 1h-6l-4-4 1-2-7 2-3 3-3 1v2l4 2 1 7-2 4-5-5-2-1h-15l-3-3-4-2 3-1 5 2 2-1-10-3-1-5h-2l-1-2-4 2v-3l12-3 2-2 2-5h5l1-6 2-3 6-1-1-8 1-3 7-1 11-7h8l6-2 2-2v-5l-4-3 1-3z" fill="#F8EED0"/>
<path transform="translate(1272,389)" d="m0 0 8 1 29 8-1 5-1 3 2 1-2 18h-2l1 5-1 13-2 9h3v28l-2 4-1 7-4-2-5-5-7-4-18-7-14-4-1-5v-15l-3-2 2-3 1-5 1-4-3-1 2-5v-4l4-5v-5l5-11 5-7v-7z" fill="#C4A9EC"/>
<path transform="translate(1006,296)" d="m0 0h5l-2 4 4-1 2 3 2-2 1 4 2 1-1 7-2 10-8 9-5 2 2 3h2l3 6-3 3v2h-2l2 4-4 4v4l-8 4h-2l2 9 6-3 6 4-1 3-4 1v5l-13 2-2 4-10 8-13 4-3-3-1 2h-3l-8-20-8-12-4-5-1-5 5-2h8l2-4 4-3h2l-1-4v-3l14-4 5-5 6-3 5-3 4-1 1-4 1-3h2l-1-4 5-2 1-1v-5l-2-3 4-5z" fill="#F7D0CE"/>
<path transform="translate(1436,251)" d="m0 0h111l-2 2h-48l-1 3-3-1-1 8-7 7h-2l-1 2h-3v8l-2 13-2 2-2 9-3 3-1 3h-3l-2 4h-2l-2 6-3 1 1 11-4 1-2 5h2l-1 3-4 1-8 1v13l-2 3v24l-1 2-1 109h-1z" fill="#B3AFF9"/>
<path transform="translate(1287,526)" d="m0 0 4 2v4h-2l1 8-1 5v10l-1 4-1 5-4 10 2 2v3l4 2-2 3-2 6-2 1-16-1v2l4 4-1 6-5-2-6 1-3 5-3-1v3l-2 1v2h-5v-3l-2-1 1-2-8-1-2-2 1-7-2-1 3-4-1-8-1-5 3-2v-7l-1-3 1-30 2-4 9-1h24l12-3z" fill="#C4A9EC"/>
<path transform="translate(589,571)" d="m0 0 6 1 18 69 9 34v4l-5-2-28-16-24-14-7-4-1-4 2-3h2l-1-6-3-1 5-5 3-6 5-2 1-11 1-3h-5v-3h2l1-7 7-3v-2l-3-1v-2l9 1 2-1v-10z" fill="#F3D9D9"/>
<path transform="translate(1168,259)" d="m0 0v3l-5 3h-2l1 3-2 7-2 5-5 10-2 12-9 9-1 4 2 2-1 5-2 3-1 7-1 1 3 3-1 4-4 4-3 5-3 2-2 7 1 7 2 5-6 4v2h2l1 3h3v2l6 2-3 7-3 4 2 1 4 8 1 10-3 6 4 5-4-2-11-11-7-11-5-11-4-16-1-9v-20l3-17 5-14 8-15 10-13 9-9 15-11z" fill="#E8C8DB"/>
<path transform="translate(150,556)" d="m0 0 6 5 5-1v5l-2-1-3 5 3 1 1 3 3-7h3v3l2 4-1 4 7 4 6 1 2 4h5l-2-10v-3l-4 1-3-3 10-3 7-7 2-5 5 1 2 4-3 2 2 6-8 4-5 2v13h10l4 1h3l-3 4-7 3 1 7-6 7 1 5v3l-4 3h-2v2l-6 5-3 3-6-2-15-10-16-12-13-11v-4l-1-5-4-2v-7l3-3 1-5 5 3v6l4 1 2 5-1-9 5-12 2 1 2-7z" fill="#CBF4F6"/>
<path transform="translate(1011,270)" d="m0 0 2 1-2 5v4l-4 2-4-2v5l4-2v2h2v4l3 2-1 5-9 3-3 5 2 2v5l-3 3h-4l1 4-2 1v5l-4 3-4 2-7 3-5 2-2 4-14 4 1 2 3 2h-3v2l-7 5 2 2-7 1-9 1 2 4-5-2-8-7-11-6-2-2-2-3h2v-5h2l1-6 12-1v-4l8-4 4-3 5-1 2-4 9-4 7-5 9-3 4-3 5-2 3-3 8-3 1-5-2-1 2-4 5-3 10-4z" fill="#F8D8CC"/>
<path transform="translate(462,583)" d="m0 0h9l4 4-3 2-1 8 7 3-1 4-5 1-6 7-1 4 5 1 3-3 3-1h8l1 5-3 5-4-2h-2l-1 2h-3l2 2 3 2 11 2 1 2-3 3h-4v2l-3 1 5 4 3 1v2l-27 11-27 8-9 2h-7v-1l3-1-2-2v-5l2-6 6-5v-5l10-7 2-7-5-2v-8l3-6 2-2 12 1-1-6 2-5h2l2-6 4-6z" fill="#E8E6E8"/>
<path transform="translate(469,569)" d="m0 0h2l-3 9 3 1v2h-4l-1 3-5 1-4 5-4 8h-2l-1 11h-12l-3 4-1 3v8l5 1-2 8-5 4-5 3v5l-7 6-1 10 4 2-3 3-6 1-7-8v-3h7v-2l-5-2 3-2-5-4-4-2 2-5 3-2-1-3-3-1-1-13v-4l-2 1-3 11-2-1 3-11-8-1-1-3 2-1-2-7-4 2-1-6h-5l1-2 24-4 19-5 22-8z" fill="#DCDCDC"/>
<path transform="translate(35,266)" d="m0 0h8l7 13 8 5 2 9 3 3v6l1 2v7l-1 2 4 1 2 5-5-2-3 5 3 4 2 10-3 3 3 10-1 2h-2v3l6-1 1 8h-11l-5-1-3-11-3 2-4-8-1-9-6-7-2-3-8-4-1 5-2-4 1-14 5-30 2-9z" fill="#CAF4F6"/>
<path transform="translate(979,246)" d="m0 0h69l24 1v15h-5l-2 5-5 3-2 5 3 1-1 2-4 2h-6l-4 4-3-5h-2l-2 5-4 4 1 3-8 7-6 4-2 3-3-1-1-2h-3l-1-2h-3l2-5v-4l-3-2 1-4h-2v-2l-5 3v-6l2-1 4 2 4-4-2-1 2-7-2-4h3v-7l3-4 1-4 1-1-2-1-37-1z" fill="#F3DAD9"/>
<path transform="translate(1071,443)" d="m0 0h1v165h-32v-1l13-1h-3-3l-1-8 6-7 2-4-1-5h4l1-2-8 1v-6l3-6 1-10-3-2-1-6 2-12 3-4 1-11 2-7 5-2-3-9-5-7h2l1-2 2 5h1l1-8-1-2 4-2 1-8v-11l1-1v-7l-3-3-2-6 4-3 2-5z" fill="#E6B6D9"/>
<path transform="translate(657,404)" d="m0 0h2l1 12-6 28-8 26-7 17-7 1-2-3 1-2h2l1-4h3 2l-1-4h2l-1-2-4 2-1-5h-11l-4 1-4-3-1-5h-2l-3-3v-4l2-1 11-1 4-4v-2l-5-1 4-10 2-4 5 1 1-2-3-3 4-4 6-3h2l1-6-3-1 1-3 9-5 7-1z" fill="#F9E2CC"/>
<path transform="translate(961,247)" d="m0 0h55l4 2-1 2-2-1-1 6-2 2-1 7-2 1 2 4-4 1-2 4-12 4-1 1-9 2-4 2h-16v7l-2 6h-1z" fill="#F9E3CC"/>
<path transform="translate(1376,320)" d="m0 0 7 1 1 5-3 3v3l3 1-2 7v3l3-4 6-2v3l3-1 1 4-2 2-3-1 1-1-1-2h-2l1 3-4 2 3 2-1 5-2 2-5 1 7 1v2l-4 1 1 3h-43v-7l5-1 2-8 4-4h3v-2l7-6 3 1 2-10 5-2 1 1z" fill="#BCA8F2"/>
<path transform="translate(1068,318)" d="m0 0 4 1v58l-2-1v-3l-5 2h-4v-3l-10 7-4 7-2-1-2-5h-4l-3-9 3-1 1-7 5-3v-2l-2-2 4-2v-2l7-5 3-6 1-5 1-6 6-5-1-4h2v-2z" fill="#EAC8DB"/>
<path transform="translate(1096,489)" d="m0 0 44 1v1h-15l-1 4h-2v2l-5 3 1 5 3 6 2 10-3 1 1 5v10l1 8-3 3 2 1 2 6-4-2-9-14-7-14-6-20-1-6z" fill="#E5B6D9"/>
<path transform="translate(51,213)" d="m0 0 3 1 2 4 2 11 4 8v3l-3 3-4-10 1 9 1 7 2 1-2 1 3 10v5l-3 5 1 4 4 1-1 4-5 1-1 2-6-4-6-11v-2l-10 1 2-10 10-30z" fill="#D4F3F3"/>
<path transform="translate(1294,584)" d="m0 0 3 2v2l-2 1-2 6h-2l1 2 12-1 4 2-1 5-1 3 6-1 10-1v2l-22 5-17 2h-35v-2h3l-1-3h3v-3h3l3-5 6-1 5 3v-6l-4-4 1-3 16 1 6-5h4z" fill="#C1B0F4"/>
<path transform="translate(201,549)" d="m0 0 5 2 13 10 18 11v3h-2v2l-4-2-5 4-6 3h-5l-1 8-3 3h-5v-3h-2l-14-2-1-11 3-3 8-5h3l-3-4 1-3 2-1-1-3-7-2z" fill="#D4F7F2"/>
<path transform="translate(1385,310)" d="m0 0h4l5 6 6 15 5 19 2 14-1 1h-30l3-2 4-1v-2l4-1v-2h-8l1-2 6-2 1-5-3-3 4-2v-2h4l1 3v-4h-2l-1-2-5 2-4 4 1-10 1-1-3-3 3-5v-4l-5-1 1-5z" fill="#B3B0F9"/>
<path transform="translate(1409,658)" d="m0 0 8 1h3 8l1 9v16l-2 9-6 5h-12l-6-4-2-6h9v2h9v-6l-4 2-9-1-5-6-1-2v-10l4-6zm3 8-3 3v6l3 3h5l3-4-1-6-2-2z" fill="#DAC2E4"/>
<path transform="translate(1219,658)" d="m0 0 7 1 4 3 7-4 7 1 5 4 1 3v19h-8l-1-8v-10h-7l-1 1-1 17h-9l-1-17-1-1h-5l-1 1-1 17h-9v-26h9 2z" fill="#F2F1D5"/>
<path transform="translate(1128,365)" d="m0 0 3 3-2 4-4 2v2h2l1 3h3v2l6 2-3 7-3 4 2 1 4 8 1 10-3 6 4 5-4-2-11-11-7-11-5-11-1-6 4-4 2-5 2-1v-2l5-2z" fill="#E5B6D9"/>
<path transform="translate(1040,651)" d="m0 0h7l6 4 1 5h-8l-4-1 2 5 7 7 2-3h9l-4 10 6 7h-10l-3-1-5 2h-9l-7-4-1-2v-9l5-6-1-2v-6l5-5zm-1 20-2 2 1 5 1 1h6l2-2-6-6z" fill="#EEF6DB"/>
<path transform="translate(1403,476)" d="m0 0 4 5 2 17v12l-3 19-6 16-6 11-4 5h-2l1-5 2-2v-11l1-11 4-4 1-6-2-4 2-5 2-9 1-2 1-12 1-3v-8z" fill="#A1A8F9"/>
<path transform="translate(719,650)" d="m0 0h8l1 1 1 9 4-2 8 1 4 5 1 2v19h-9l-1-17-1-1h-5l-1 1-1 17h-9z" fill="#DEF3E6"/>
<path transform="translate(1181,658)" d="m0 0 7 1h3 9v26h-9-3l-2 1h-6l-6-4-3-6v-8l3-6 4-3zm2 8-3 3v6l3 3h5l3-3v-6l-3-3z" fill="#F2F1D4"/>
<path transform="translate(884,658)" d="m0 0 8 1h3 8l1 2v22l-1 2h-8-3l-2 1-9-1-5-6-1-3v-8l3-6zm3 8-3 3v6l3 3h5l3-4-1-6-2-2z" fill="#DDF2E4"/>
<path transform="translate(759,658)" d="m0 0 8 1h2 9v26h-9-2l-9 1-6-4-3-8 1-8 4-6zm2 8-3 4 1 6 2 2 7-1 1-2v-6l-3-3z" fill="#DEF5E6"/>
<path transform="translate(820,658)" d="m0 0 8 1 3 2v-2h8v26h-8v-2l-5 3-9-1-5-6-1-2v-10l4-6zm2 8-2 2v8l2 2h6l3-4-1-6-2-2z" fill="#DFF7E8"/>
<path transform="translate(920,659)" d="m0 0h10l5 13 6-13h9l-3 9-13 30h-9l3-9 1-7-9-22z" fill="#EBF6DC"/>
<path transform="translate(1339,658)" d="m0 0h7l6 3 4 6v7h-18l1 3 5 1 2-2h9l-1 4-5 5-3 1h-7l-6-3-4-6v-10l4-6zm2 7-3 2v2h9l-1-3z" fill="#E6E5E7"/>
<path transform="translate(1153,658)" d="m0 0 9 1 5 4 2 4v7h-18l1 3 7 1v-2h9l-1 5-5 4-3 1h-7l-7-4-3-6v-8l3-6 4-3zm1 7-3 2v2h9l-1-3z" fill="#F3F1D4"/>
<path transform="translate(1533,658)" d="m0 0 9 1 5 4 2 4v7h-18l1 3 7 1v-2h9l-1 5-5 4-3 1h-7l-7-4-3-6v-8l4-7zm1 7-3 2v2h9l-2-4z" fill="#D1B7EA"/>
<path transform="translate(1443,658)" d="m0 0 9 1 6 5 1 3v7h-18l1 4 7-1 1-1h8l-1 5-5 4-3 1h-7l-7-4-3-6v-8l4-7zm1 7-3 3v1h9l-2-4z" fill="#DBC3E5"/>
<path transform="translate(1477,658)" d="m0 0 7 1 5 5 1 2v19h-9l-1-17-7-2-1 19h-9v-26h9 2z" fill="#DAC0E5"/>
<path transform="translate(1294,658)" d="m0 0 7 1 5 6v20h-8l-1-15-1-3h-6l-1 1-1 17h-9v-26h9 3z" fill="#ECE5E4"/>
<path transform="translate(859,658)" d="m0 0 7 1 5 5 1 5v15l-1 1h-8l-1-17-1-1h-6l-1 2-1 16h-8v-26h8v2z" fill="#DFF7E7"/>
<path transform="translate(1356,572)" d="m0 0 9 2 1 5 9-3-1 3-14 10-21 11-7 1v-2h4l-1-4 2-3-1-7 8-4 2-2h4l2-3 3-1z" fill="#B4B0F9"/>
<path transform="translate(960,658)" d="m0 0 9 1 5 4 1 4-1 1h-7l-2-2-4 1 11 4 3 4-1 7-4 3-3 1h-7l-6-3-3-6 1-1h8l1 2h5l-2-2-9-3-3-4 1-7 4-3z" fill="#EAF2DB"/>
<path transform="translate(1085,658)" d="m0 0 9 1 5 5v4h-7l-2-2-4 1 11 4 3 5-1 5-4 4-3 1h-7l-6-3-3-5 1-2h7l2 2 5 1v-3l-9-2-5-5 1-7 4-3z" fill="#F2F1D5"/>
<path transform="translate(699,658)" d="m0 0 9 1 4 2 3 5v3h-9l-1-2-6-1-1 7 1 5 6-1 1-2h9l-1 5-5 5-3 1h-7l-6-3-4-6v-10l4-6z" fill="#D5F0EC"/>
<path transform="translate(1504,658)" d="m0 0 9 1 5 4 2 5-1 1h-8l-2-2h-5l-1 2v6l1 2h5l2-2h8l1 2-4 6-6 3-9-1-6-5-2-6 1-8 5-6z" fill="#DAC0E5"/>
<path transform="translate(1183,594)" d="m0 0 9 3 7 2 5 4 2-1 1-4 4 1 3 2-1-5 6 3h6l5 5v2h8l8 2v3h2v2l-17-1-22-4-17-5-13-5v-2z" fill="#D0B5EA"/>
<path transform="translate(1e3 658)" d="m0 0 9 1 5 6v3h-8l-1-2-5-1v3l9 2 5 4v7l-5 4-2 1h-7l-6-3-3-3v-4h8l1 3h6v-3l-10-2-4-4v-7l4-4z" fill="#EDF4DA"/>
<path transform="translate(636,487)" d="m0 0h2l-3 9-12 23-4 6h-2l-4 7h-2l-1 2-3-1-1-3 2-4 4-1 2 1-1-2v-8l8-6 2-6 3-1-6-1-3-7 5 1 3 2v2h2l1-4-3-3v-2l5-3z" fill="#F3DAD9"/>
<path transform="translate(1106,652)" d="m0 0h8v7h5v7h-5v12h5v7h-9l-4-4-1-2v-13h-3v-7h3v-6z" fill="#F2F1D4"/>
<path transform="translate(1128,350)" d="m0 0 2 1-2 7v8l-5 5h-4l1 3-3 1-2 5-4 3-2-5-1-5v-9l2-6 5-5h3l2 5 5-1 2-6z" fill="#E9C0D6"/>
<path transform="translate(1313,652)" d="m0 0h8v7h5v7h-5l1 11 5 2-1 6h-9l-4-4-1-4v-11h-3v-7l3-1z" fill="#EAE3E2"/>
<path transform="translate(785,652)" d="m0 0h8v7h5v7h-5v12h5v7h-9l-4-4-1-4v-11h-3v-7l3-1z" fill="#DEF6E7"/>
<path transform="translate(962,542)" d="m0 0 5 5h5l2-5 2 1 1 11-3 2-4-2-2-3-1 2 1 3-4 3 1 2v6h-2v41h-2l-1-47-5 5-2-1 1-10 1-3h2v-2l3-2z" fill="#F7C3CE"/>
<path transform="translate(1138,658)" d="m0 0h2v9l-7 3-1 15h-9v-26h9l1 2z" fill="#F3F2D5"/>
<path transform="translate(909,650)" d="m0 0h8v35h-8z" fill="#EDF9DD"/>
<path transform="translate(1374,650)" d="m0 0h8v35h-8z" fill="#E8E7E9"/>
<path transform="translate(1360,650)" d="m0 0h8v35h-8z" fill="#E8E7E9"/>
<path transform="translate(897,666)" d="m0 0 6 1v18h-8-3l-2 1-9-1-1-3 4 1 1-5 7-1 2-3 2-7z" fill="#ECF7DD"/>
<path transform="translate(1265,659)" d="m0 0h9v26h-9z" fill="#EAE5E4"/>
<path transform="translate(979,659)" d="m0 0h9v26h-9z" fill="#EBF2DA"/>
<path transform="translate(696,668)" d="m0 0 2 1 1 9 6-1 1-2h9l-1 5-5 5-3 1h-7l-6-3-4-6 2-3 4-1z" fill="#DEF5E7"/>
<path transform="translate(1388,659)" d="m0 0h8v26l-3 1-5-1z" fill="#E7E9F0"/>
<path transform="translate(1409,658)" d="m0 0 8 1 2 1v6l2 4h-2l-2-3h-7v2h-2v6l-2-2-4-1 3 9 3 3-4-1-4-6v-10l4-6z" fill="#E3E2ED"/>
<path transform="translate(1244,660)" d="m0 0 4 2 2 4v19h-8l-1-8v-9l1-7z" fill="#EFE8D9"/>
<path transform="translate(720,651)" d="m0 0h5l-4 1 1 17 3-1 1-2h2v19h-9v-31z" fill="#DFF3E6"/>
<path transform="translate(1036,672)" d="m0 0 2 1 1 5h6l3-2h5l1 3 4-1 6 7h-10l-3-1-5 2h-9l-7-4-1-4h2l5 5h5v-3l-4-1-2-6z" fill="#F3F3D5"/>
<path transform="translate(719,650)" d="m0 0h8l1 1 1 9 4-1 5 1-1 4h-7l-1 4-3-1-5 3v-18l-1-1-1 3z" fill="#D5F5EF"/>
<path transform="translate(1533,658)" d="m0 0 9 1 5 4 1 3-6-1-1 2-7-1-3 3h-2v-2l-4 1-1 8h-2v-8l4-7z" fill="#DABFE5"/>
<path transform="translate(962,542)" d="m0 0h1v11l-3 5h2v50h-1l-1-47-5 5-2-1 1-10 1-3h2v-2l3-2z" fill="#E7BCD0"/>
<path transform="translate(830,242)" d="m0 0h8v2l-17 2-2 3-5 1h-9l-6 5h-10v-2l17-6 17-4z" fill="#F6EED1"/>
<path transform="translate(1016,247)" d="m0 0h24v1l-11 1-5 5-6 4-3 7h-2v-7l3-4 1-4 1-1z" fill="#F2E1D9"/>
<path transform="translate(1533,205)" d="m0 0h5l5 5 4 5 1 8-7-4-3-6h-5l-1-2z" fill="#A1A8FA"/>
<path transform="translate(773,261)" d="m0 0 4 1-2 1 1 6-5 2-11 1-2 4-6 2 2-4 14-10z" fill="#F6EDD1"/>
<path transform="translate(1511,675)" d="m0 0h8l1 2-4 6-5 2-10-2 2-1 1-3 5 1 1-4z" fill="#D0B5EB"/>
<path transform="translate(696,659)" d="m0 0h4v4l-2 2v2h-2v6l-4 1-1 2h-2v-9l4-6z" fill="#D6F4F3"/>
<path transform="translate(909,650)" d="m0 0h8v10l-6 2-2 4z" fill="#E0FAE9"/>
<path transform="translate(1390,647)" d="m0 0 6 1 1 6-2 2h-6l-2-2 1-6z" fill="#E7E8ED"/>
<path transform="translate(1268,647)" d="m0 0 5 1 2 4-1 3-7 1-2-2v-5z" fill="#EDE6E5"/>
<path transform="translate(982,647)" d="m0 0 5 1 2 4-1 3-7 1-2-2v-5z" fill="#EEF7DB"/>
<path transform="translate(289,110)" d="m0 0h3v3l-24 7-4 1v-2l5-2h3v-2l4-2 12-2z" fill="#E9F3DD"/>
<path transform="translate(1395,659)" d="m0 0h1v26l-3 1-4-1v-5l5-4z" fill="#E5E3EC"/>
<path transform="translate(830,242)" d="m0 0h8v2l-21 3h-8l4-2z" fill="#F5ECD1"/>
<path transform="translate(1396,358)" d="m0 0h3v5h8l-1 2h-17l2-3h2l1-3z" fill="#C0ADF1"/>
<path transform="translate(1388,659)" d="m0 0h1l1 15h4v3h-2l-1 5-3 3z" fill="#E9E7E9"/>
<path transform="translate(427,457)" d="m0 0 2 1-8 9-4-1 1-4z" fill="#E6F3E0"/>
<path transform="translate(74,495)" d="m0 0 3 1 2 11-4 1-2-12z" fill="#C1F5F7"/>
<path transform="translate(1304,356)" d="m0 0h5l2 3 3 4h-8z" fill="#C4A9ED"/>
<path transform="translate(660,367)" d="m0 0h2v5l-3 2-6-1v-2z" fill="#FBE9CB"/>
<path transform="translate(1314,400)" d="m0 0 8 2-3 1-2 4-3 1-2-5z" fill="#C4ABED"/>
<path transform="translate(1313,653)" d="m0 0h7v6l-4-1-3 1z" fill="#EBE9EA"/>
<path transform="translate(617,495)" d="m0 0 5 1 4 4v2h-6z" fill="#F4DAD9"/>
<path transform="translate(514,420)" d="m0 0 4 1-1 5-3 3-3-3z" fill="#F1E9D8"/>
<path transform="translate(1307,399)" d="m0 0 7 1-2 5-3 2-2-1 1-5z" fill="#BEAAF1"/>
<path transform="translate(1390,649)" d="m0 0 5 1v6h-6v-6z" fill="#E9E7E9"/>
<path transform="translate(1322,678)" d="m0 0 5 1-1 6h-5z" fill="#E5E4E5"/>
<path transform="translate(657,386)" d="m0 0 4 1v6l-5-1-2-2z" fill="#FAE5CB"/>
<path transform="translate(1238,379)" d="m0 0 8 2-2 4-4 1z" fill="#D1B6EB"/>
<path transform="translate(1511,675)" d="m0 0h8l1 2-2 4h-2v-3l-6 1v-3z" fill="#D9BFE5"/>
<path transform="translate(1375,651)" d="m0 0h6v16h-1l-1-12-2 1 1-4h-2l-1 3z" fill="#E7EAF1"/>
<path transform="translate(636,487)" d="m0 0h2l-3 9-1 2h-2l-1-3-2-1 3-2h3z" fill="#EFDFD9"/>
<path transform="translate(817,246)" d="m0 0 3 1-1 2-5 1-8-1v-2z" fill="#F8EFD0"/>
<path transform="translate(219,574)" d="m0 0 2 2-1 2-6 1v2l-5-1v-2l8-2z" fill="#D5F5F5"/>
<path transform="translate(617,524)" d="m0 0 1 3-7 11-1-4 1-2h2l2-5z" fill="#EEDED9"/>
<path transform="translate(1114,362)" d="m0 0h4l-1 3-6 1-1 6h-1v-8z" fill="#EAC9DC"/>
<path transform="translate(650,348)" d="m0 0 2 2-12 6v-3h3v-2z" fill="#F7EAD3"/>
<path transform="translate(739,290)" d="m0 0h2l-1 5-6 2-2-1z" fill="#F7EDD0"/>
</svg>
